# xmcd CD database file
#
# Track frame offsets:
#	150
#	11262
#	31015
#	45096
#	68703
#	83554
#	98097
#	107365
#	129615
#	150149
#	167884
#	188079
#	214442
#	293476
#
# Disc length: 4186 seconds
#
# Revision: 0
# Processed by: cddbd v1.5.2PL0 Copyright (c) Steve Scherf et al.
# Submitted via: CDex 1.51
#
DISCID=9c10580e
DTITLE=Les Nuits Manouches - Nothing but Django 3
DYEAR=2008
DGENRE=Jazz
TTITLE0=Marcel Loeffler - Rythme futur
TTITLE1=Mandino Reinhart - Porto Cabello
TTITLE2=Raphael Fays - Duke And Dukie
TTITLE3=Tchavolo Schmitt - Swing 48
TTITLE4=Raphael Fays - Danse norvégienne
TTITLE5=Raphael Fays - Diminushing Blackness
TTITLE6=Florin Niculescu - Mike
TTITLE7=Dorado Schmitt - Pierre Blanchard - Double Scotch
TTITLE8=Angelo Debarre - Ludovic Beier - Vamp
TTITLE9=Biréli Lagrène - Nuits de St-Germain-des-Prés
TTITLE10=Angelo Debarre - Ludovic Beier - Troublant boléro
TTITLE11=Costel Nitescu - Anouman
TTITLE12=Boulou and Elios Ferré - Medley
TTITLE13=David Rivière - Montagne Sainte-Geneviève
EXTD=YEAR: 2008
EXTT0=
EXTT1=
EXTT2=
EXTT3=
EXTT4=
EXTT5=
EXTT6=
EXTT7=
EXTT8=
EXTT9=
EXTT10=
EXTT11=
EXTT12=
EXTT13=
PLAYORDER=
